Coordinates
version=1
nRows=26
nColumns=24
inDegrees=yes

Units are S.I. units (second, meters, Newtons, ...)
Angles are in degrees.

endheader
time	pelvis_tilt	pelvis_list	pelvis_rotation	pelvis_tx	pelvis_ty	pelvis_tz	hip_flexion_r	hip_adduction_r	hip_rotation_r	knee_angle_r	ankle_angle_r	subtalar_angle_r	mtp_angle_r	hip_flexion_l	hip_adduction_l	hip_rotation_l	knee_angle_l	ankle_angle_l	subtalar_angle_l	mtp_angle_l	lumbar_extension	lumbar_bending	lumbar_rotation
      0.87566667	      1.04837091	     -4.72320799	      9.62596338	     -0.40651623	      1.03183035	      0.27841331	      7.54546845	     11.48334292	     -4.52164448	    -12.64787563	      2.33425224	    -14.46577181	      3.32235737	     10.12184771	     -8.33101693	      2.73809565	    -64.60150186	     -7.52635756	      5.19751580	      3.51766549	     -1.83565203	      2.43597549	     -6.13533246
      0.87983333	      1.04966756	     -4.61618849	      9.62252669	     -0.40168653	      1.03255530	      0.27850550	      7.03362884	     11.42855798	     -4.50816818	    -12.26418305	      2.41425737	    -14.31202079	      3.32533836	     10.79695059	     -8.15909458	      2.78901404	    -64.70125234	     -6.50608979	      4.79316427	      3.51088641	     -1.92367755	      2.32529392	     -6.05443170
      0.88400000	      1.08116878	     -4.51671825	      9.60212443	     -0.39688711	      1.03328292	      0.27863739	      6.50513197	     11.38461901	     -4.52329576	    -11.91174003	      2.55526442	    -14.04029320	      3.33082524	     11.43053574	     -8.01051510	      2.80780748	    -64.75674484	     -5.47247106	      4.47860893	      3.39148619	     -2.06987815	      2.23479243	     -5.83784221
      0.88816667	      1.08050794	     -4.39370094	      9.55920603	     -0.39204976	      1.03398500	      0.27878122	      5.99168173	     11.31686181	     -4.46644449	    -11.53278643	      2.62463002	    -13.90708840	      3.33220838	     12.06789322	     -7.81969901	      2.80475839	    -64.73242712	     -4.59229078	      3.96781991	      3.36784553	     -2.14277402	      2.10965473	     -5.77530735
      0.89233333	      1.15305236	     -4.26197677	      9.49276345	     -0.38725324	      1.03476243	      0.27895556	      5.40530547	     11.25118658	     -4.40912410	    -11.17044663	      2.74735226	    -13.68394041	      3.33029952	     12.60572990	     -7.63621156	      2.76879526	    -64.65118424	     -3.75526249	      3.44362151	      3.18505434	     -2.34819359	      1.98682242	     -5.50747435
      0.89650000	      1.14417932	     -4.13533626	      9.41285475	     -0.38243956	      1.03539377	      0.27915254	      4.91113722	     11.17925604	     -4.32181768	    -10.81618053	      2.81359332	    -13.55605465	      3.32984244	     13.22053859	     -7.44192517	      2.72395039	    -64.52074896	     -2.96052604	      2.92996164	      3.14311255	     -2.42254496	      1.85777841	     -5.44147230
      0.90066667	      1.21719248	     -3.98999913	      9.30281414	     -0.37766287	      1.03613005	      0.27939769	      4.32242670	     11.10325748	     -4.19320987	    -10.45680028	      2.92380186	    -13.37429991	      3.31961871	     13.71911471	     -7.24506194	      2.64213309	    -64.31992610	     -2.28809129	      2.30820891	      2.92960217	     -2.62907743	      1.71404086	     -5.14166109
      0.90483333	      1.21115640	     -3.86220199	      9.18183627	     -0.37287355	      1.03670452	      0.27965062	      3.83465481	     11.02965778	     -4.07521584	    -10.12271545	      2.99031164	    -13.24885692	      3.31629064	     14.29671422	     -7.05458549	      2.55658852	    -64.08455553	     -1.56213594	      1.78282630	      2.87043223	     -2.70641549	      1.59225957	     -5.05718327
      0.90900000	      1.29604038	     -3.70856245	      9.03784210	     -0.36810151	      1.03741331	      0.27994642	      3.22958370	     10.94752013	     -3.88835881	     -9.76051784	      3.08630547	    -13.09683431	      3.29510439	     14.74057979	     -6.85060128	      2.44953045	    -63.76080015	     -1.02185738	      1.12731026	      2.62720747	     -2.92873839	      1.43045560	     -4.71699106
      0.91316667	      1.32107669	     -3.56315579	      8.87031888	     -0.36335720	      1.03798611	      0.28027899	      2.70968378	     10.86124409	     -3.69462155	     -9.43701765	      3.17712524	    -12.97687944	      3.27044786	     15.23956687	     -6.64897763	      2.32602098	    -63.39965788	     -0.45899084	      0.51617706	      2.39279264	     -3.07821467	      1.27612641	     -4.47258527
      0.91733333	      1.34045764	     -3.42130507	      8.69623563	     -0.35862440	      1.03853011	      0.28061876	      2.19926257	     10.77630995	     -3.48563104	     -9.11501629	      3.22342148	    -12.90639662	      2.81294844	     15.73239951	     -6.44955815	      2.20130390	    -62.99687446	      0.16265912	     -0.02705560	     -0.95239012	     -3.20332351	      1.12878057	     -4.20931743
      0.92150000	      1.41144911	     -3.26130606	      8.49694156	     -0.35390305	      1.03912488	      0.28099462	      1.63353768	     10.67564464	     -3.26551171	     -8.80478350	      3.33688432	    -12.75662160	      2.81315389	     16.13438421	     -6.24446382	      2.05093319	    -62.50938109	      0.66002907	     -0.61983844	     -0.95947635	     -3.43708040	      0.98065556	     -4.02439841
      0.92566667	      1.44938434	     -3.10217697	      8.28838966	     -0.34919518	      1.03963852	      0.28138570	      1.10913101	     10.56791187	     -3.03464382	     -8.50076508	      3.42490415	    -12.64012774	      2.80807095	     16.55729453	     -6.03298377	      1.90315740	    -61.96901241	      1.10326427	     -1.21424195	     -0.97633000	     -3.60394407	      0.81773622	     -3.77699419
      0.92983333	      1.49832715	     -2.95689886	      8.07680191	     -0.34446141	      1.04014098	      0.28178837	      0.56422660	     10.47424727	     -2.80122020	     -8.17264556	      3.48009873	    -12.53693880	      2.78814937	     16.95034904	     -5.84242062	      1.75563848	    -61.37109315	      1.51123674	     -1.77907713	     -1.01860861	     -3.75512440	      0.66746711	     -3.43383011
      0.93400000	      1.52880315	     -2.80026116	      7.83801069	     -0.33979406	      1.04058075	      0.28222945	      0.05997949	     10.36187859	     -2.52733451	     -7.89030092	      3.58667109	    -12.44162868	      2.77399371	     17.34360702	     -5.63882418	      1.59183864	    -60.71846372	      1.90634222	     -2.32858964	     -1.04989864	     -3.92788885	      0.49902127	     -3.20508804
      0.93816667	      1.57748359	     -2.64065913	      7.59461470	     -0.33510912	      1.04102812	      0.28268301	     -0.46737939	     10.24475075	     -2.26357969	     -7.60064288	      3.66947174	    -12.34261540	      2.75511114	     17.69184217	     -5.43563276	      1.42884864	    -60.00107963	      2.27477460	     -2.86062165	     -1.08541684	     -4.11003918	      0.33182684	     -2.93214651
      0.94233333	      1.61681788	     -2.49437030	      7.35545353	     -0.33041695	      1.04141617	      0.28313921	     -0.99174691	     10.13789153	     -1.99805137	     -7.28534605	      3.73445464	    -12.25216889	      2.71947460	     18.03745802	     -5.24702923	      1.27672723	    -59.23297484	      2.60717783	     -3.36697511	     -1.14382725	     -4.25595365	      0.16378265	     -2.58352530
      0.94650000	      1.63790857	     -2.33587640	      7.08732037	     -0.32576689	      1.04175807	      0.28362138	     -1.47177419	     10.00756791	     -1.71702046	     -7.02750613	      3.83871857	    -12.15975105	      2.69346720	     18.37494474	     -5.04585818	      1.10420305	    -58.40079168	      2.94381617	     -3.82983179	     -1.18555883	     -4.41660042	     -0.00328079	     -2.34264248
      0.95066667	      1.66986771	     -2.19438608	      6.83774280	     -0.32109808	      1.04206453	      0.28408596	     -1.97846527	      9.89488699	     -1.45157336	     -6.72441000	      3.91832091	    -12.06710014	      2.65282828	     18.68954462	     -4.86333628	      0.95450343	    -57.51956853	      3.23031789	     -4.28357777	     -1.24500370	     -4.56353387	     -0.16298864	     -2.00995850
      0.95483333	      1.68052952	     -2.04054736	      6.56157548	     -0.31645017	      1.04232524	      0.28457135	     -2.43986302	      9.75908865	     -1.16727060	     -6.47667957	      4.02074294	    -11.97250104	      2.61905975	     18.99574706	     -4.66667003	      0.79059183	    -56.56894042	      3.52642298	     -4.69088612	     -1.29264739	     -4.70254586	     -0.33382973	     -1.75375565
      0.95900000	      1.73707646	     -1.89925497	      6.30806825	     -0.31178292	      1.04261072	      0.28503379	     -2.97324498	      9.63978150	     -0.90441440	     -6.16936758	      4.09976947	    -11.86741527	      2.56737156	     19.23717283	     -4.48705371	      0.64997060	    -55.56414418	      3.77365302	     -5.09530702	     -1.35998334	     -4.87150052	     -0.49396113	     -1.41679143
      0.96316667	      1.74617872	     -1.76213449	      6.04267944	     -0.30712807	      1.04279064	      0.28549498	     -3.43604741	      9.51317170	     -0.63560241	     -5.90080576	      4.18962012	    -11.77173241	      2.50829089	     19.50842973	     -4.30465937	      0.51293995	    -54.50285544	      4.01155317	     -5.46371051	     -1.43411999	     -4.99876816	     -0.64904109	     -1.11274784
      0.96733333	      1.72151369	     -1.62799274	      5.76585961	     -0.30247589	      1.04286813	      0.28598220	     -3.84508861	      9.38193687	     -0.37255780	     -5.66806688	      4.30979888	    -11.67806477	      2.47117327	     19.79536340	     -4.13001820	      0.36542138	    -53.38829049	      4.24512587	     -5.77547599	     -1.48253317	     -5.09311956	     -0.80874247	     -0.90487474
      0.97150000	      1.74135815	     -1.50329336	      5.51791480	     -0.29778712	      1.04298447	      0.28639871	     -4.32978582	      9.26226061	     -0.12467260	     -5.37033774	      4.40452455	    -11.57285531	      2.41181074	     20.01197192	     -3.95730881	      0.25490657	    -52.20826524	      4.40255297	     -6.12256751	     -1.55721741	     -5.20599281	     -0.94663049	     -0.57321442
      0.97566667	      1.74931753	     -1.38128981	      5.25867322	     -0.29311439	      1.04304727	      0.28682606	     -4.78525458	      9.13834465	      0.11812140	     -5.10292727	      4.48033291	    -11.46886582	      2.31981932	     20.21816795	     -3.78820062	      0.14478326	    -50.97361499	      4.57623208	     -6.43793148	     -1.66690582	     -5.33071017	     -1.08488854	     -0.25558619
      0.97983333	      1.73819695	     -1.26566464	      5.00706019	     -0.28842636	      1.04303313	      0.28723172	     -5.22017939	      9.01668243	      0.36714560	     -4.83592681	      4.60111100	    -11.36417655	      2.24893179	     20.42406252	     -3.62202101	      0.04718192	    -49.68012098	      4.68860719	     -6.72486343	     -1.75756084	     -5.42369571	     -1.21939558	     -0.01114829
